<!-- icon666.com - MILLIONS vector ICONS FREE --><svg id="Capa_1" enable-background="new 0 0 512 512" viewBox="0 0 512 512" xmlns="http://www.w3.org/2000/svg"><g><path d="m175.667 0h-160.667c-8.284 0-15 6.716-15 15v160.667c0 8.284 6.716 15 15 15h160.667c8.284 0 15-6.716 15-15v-160.667c0-8.284-6.716-15-15-15z"></path><path d="m497 0h-160.667c-8.284 0-15 6.716-15 15v160.667c0 8.284 6.716 15 15 15h160.667c8.284 0 15-6.716 15-15v-160.667c0-8.284-6.716-15-15-15z"></path><path d="m497 321.333h-160.667c-8.284 0-15 6.716-15 15v160.667c0 8.284 6.716 15 15 15h160.667c8.284 0 15-6.716 15-15v-160.667c0-8.284-6.716-15-15-15z"></path><path d="m115.121 512 75.546-75.546v-48.464l-124.01 124.01z"></path><path d="m175.667 321.333h-9.232l-166.435 166.436v9.231c0 8.284 6.716 15 15 15h9.231l166.436-166.435v-9.231c0-8.285-6.716-15.001-15-15.001z"></path><path d="m15 321.333c-8.284 0-15 6.716-15 15v18.119l33.119-33.119z"></path><path d="m175.667 512c8.284 0 15-6.716 15-15v-18.12l-33.12 33.12z"></path><path d="m80.333 220.667h30v70.667h-30z"></path><path d="m401.667 220.667h30v70.667h-30z"></path><path d="m220.667 80.333h70.666v30h-70.666z"></path><path d="m220.667 401.667h70.666v30h-70.666z"></path><path d="m75.545 321.333-75.545 75.546v48.464l124.009-124.01z"></path></g></svg>